{"title":"From Paris with Love-AC3-XviD-DVDRip[Eng]2010 2Lions-Team","uid":5592300,"size":1464312237,"categoryP":"video","categoryS":"movies","magnet":"?xt=urn:btih:6e39c6497649d442ee18ca391a7ceef788d02f9a&amp;dn=From+Paris+with+Love-AC3-XviD-DVDRip%5BEng%5D2010+2Lions-Team&amp;tr=udp%3A%2F%2Ftracker.openbittorrent.com%3A80&amp;tr=udp%3A%2F%2Fopen.demonii.com%3A1337&amp;tr=udp%3A%2F%2Ftracker.coppersurfer.tk%3A6969&amp;tr=udp%3A%2F%2Fexodus.desync.com%3A6969","seeders":0,"leechers":1,"uploader":"FatFreddy31","files":-1,"time":1274907939,"description":"In Paris, a young employee in the office of the US Ambassador hooks up with an American spy looking to stop a terrorist attack in the city.\n &lt;a href=&quot;\nhttp://www.imdb.com/title/tt1179034/&quot; rel=&quot;nofollow&quot; target=&quot;_NEW&quot;&gt;\nhttp://www.imdb.com/title/tt1179034/&lt;/a&gt;\n\nSubtitles (srt) : Dutch, English, French, Hungarian and Polish.\n\nCovers included.\n\nJames Reece, assistent van de Britse ambassadeur in Parijs heeft de ambitie te slagen bij de geheime dienst. Hij krijgt zijn kans wanneer hij de opdracht krijgt samen te werken met de Amerikaanse CIA-agent Charlie Wax om een terroristische aanslag in Parijs te voorkomen. Charlie Wax is echter een loose canon die de stad binnen de kortste keren op z'n kop zet en Reece als zijn chauffeur behandelt.\n &lt;a href=&quot;\nhttp://www.moviemeter.nl/film/53977&quot; rel=&quot;nofollow&quot; target=&quot;_NEW&quot;&gt;\nhttp://www.moviemeter.nl/film/53977&lt;/a&gt;\n\nOndertitels (srt) : Engels, Frans, Hongaars, Nederlands en Pools.\n\nGeneral\nComplete name                    : From Paris with Love-AC3-XviD-DVDRip[Eng]2010 2Lions-TeamFrom Paris with Love-AC3-XviD-DVDRip[Eng]2010.avi\nFormat                           : AVI\nFormat/Info                      : Audio Video Interleave\nFile size                        : 1.36 GiB\nDuration                         : 1h 32mn\nOverall bit rate                 : 2 105 Kbps\nWriting application              : VirtualDubMod 1.5.4.1 (build 2178/release)\nWriting library                  : VirtualDubMod build 2178/release\n\nVideo\nID                               : 0\nFormat                           : MPEG-4 Visual\nFormat profile                   : Simple@L3\nFormat settings, BVOP            : No\nFormat settings, QPel            : No\nFormat settings, GMC             : No warppoints\nFormat settings, Matrix          : Default (H.263)\nCodec ID                         : XVID\nCodec ID/Hint                    : XviD\nDuration                         : 1h 32mn\nBit rate                         : 1 648 Kbps\nWidth                            : 720 pixels\nHeight                           : 304 pixels\nDisplay aspect ratio             : 2.35:1\nFrame rate                       : 23.976 fps\nResolution                       : 24 bits\nColorimetry                      : 4:2:0\nScan type                        : Progressive\nBits/(Pixel*Frame)               : 0.314\nStream size                      : 1.07 GiB (78%)\nWriting library                  : XviD 1.1.2 (UTC 2006-11-01)\n\nAudio\nID                               : 1\nFormat                           : AC-3\nFormat/Info                      : Audio Coding 3\nCodec ID                         : 2000\nDuration                         : 1h 32mn\nBit rate mode                    : Constant\nBit rate                         : 448 Kbps\nChannel(s)                       : 6 channels\nChannel positions                : Front: L C R, Surround: L R, LFE\nSampling rate                    : 48.0 KHz\nStream size                      : 297 MiB (21%)\nAlignment                        : Split accross interleaves\nInterleave, duration             : 42 ms (1.00 video frame)\nInterleave, preload duration     : 500 ms\n\nSource: From Paris with Love DVDR-Replica\n\nThanks to SimplyReleaseS for the source, and Dutch subs..\n\nBrought to you by \n2Lions Team\n\nmeer zien??\nKom dan eens kijken op ons forum \n                    &lt;a href=&quot;\nhttp://www.2lions.ons-forum.nl&quot; rel=&quot;nofollow&quot; target=&quot;_NEW&quot;&gt;\nhttp://www.2lions.ons-forum.nl&lt;/a&gt;\n\n2Lions the site to be for all your Dutch MOVIES and more\n\n******************************************\n\nDON T HIT AND RUN Niet gelijk afhaken als de FILM binnen is blijf seeden. \n\nDon`t quit after you finished the download, but keep seeding\n\nThere are fake torrents from uploaders who use our team name.\nThose are not ours, or members from our team.\nWe 2Lions-Team are not responsible for the fake posts on our name\n\nWij 2Lions-Team zijn niet verantwoordelijk voor die zieke FAKE posten die op onze naam worden gedaan\n\nPlease check our site !!!\n\nto the fakers , get a life !!!","torrent":{"xt":"urn:btih:6e39c6497649d442ee18ca391a7ceef788d02f9a","amp;dn":"From+Paris+with+Love-AC3-XviD-DVDRip%5BEng%5D2010+2Lions-Team","amp;tr":["udp%3A%2F%2Ftracker.openbittorrent.com%3A80","udp%3A%2F%2Fopen.demonii.com%3A1337","udp%3A%2F%2Ftracker.coppersurfer.tk%3A6969","udp%3A%2F%2Fexodus.desync.com%3A6969"],"infoHash":"6e39c6497649d442ee18ca391a7ceef788d02f9a","infoHashBuffer":{"type":"Buffer","data":[110,57,198,73,118,73,212,66,238,24,202,57,26,124,238,247,136,208,47,154]},"announce":[],"urlList":[]}}